<svg width="30" height="30" viewBox="0 0 30 30" fill="none" xmlns="http://www.w3.org/2000/svg">
<path d="M14.9995 27.6149C21.8143 27.6149 27.3388 22.2369 27.3388 15.6027C27.3388 8.9686 21.8143 3.59058 14.9995 3.59058C8.18465 3.59058 2.66016 8.9686 2.66016 15.6027C2.66016 22.2369 8.18465 27.6149 14.9995 27.6149Z" fill="#36999B"/>
<path d="M14.9995 26.6878C21.8143 26.6878 27.3388 21.2475 27.3388 14.5365C27.3388 7.82548 21.8143 2.38513 14.9995 2.38513C8.18465 2.38513 2.66016 7.82548 2.66016 14.5365C2.66016 21.2475 8.18465 26.6878 14.9995 26.6878Z" fill="url(#paint0_linear_1063_32461)"/>
<path d="M24.5486 14.5381C24.5489 15.3089 24.4531 16.0768 24.2636 16.8239C23.2271 20.9113 19.4732 23.9399 14.9991 23.9399C9.72647 23.9399 5.45117 19.7299 5.45117 14.5375C5.45163 13.9907 5.49946 13.4449 5.59412 12.9064C6.37847 8.49084 10.2911 5.13354 14.9991 5.13354C20.2734 5.13354 24.5486 9.3436 24.5486 14.5381Z" fill="#36999B"/>
<path d="M24.411 15.1872C24.4112 15.7359 24.3627 16.2835 24.266 16.8236C23.2299 20.9112 19.4754 23.94 15.0006 23.94C9.72707 23.94 5.45117 19.7297 5.45117 14.537C5.45152 13.9899 5.49935 13.4438 5.59412 12.905C6.63017 8.81522 10.3847 5.78357 14.8601 5.78357C20.1351 5.78417 24.411 9.99452 24.411 15.1872Z" fill="url(#paint1_linear_1063_32461)"/>
<path d="M23.7312 6.72297L23.2608 7.18496C22.8908 7.55786 22.5203 7.93081 22.1492 8.30382C21.2827 7.34144 20.23 6.56491 19.0547 6.02126L20.0447 5.07806L20.7236 4.40771C21.8628 4.98344 22.8832 5.76893 23.7312 6.72297Z" fill="#C8F3F4"/>
<path d="M24.8705 8.27505L24.5015 8.6385L23.2693 9.8523C23.1844 9.6972 23.0872 9.53325 22.9759 9.3636C22.8619 9.1899 22.7476 9.03225 22.6367 8.89005L23.7973 7.74555L24.2284 7.323C24.4597 7.62832 24.6741 7.94615 24.8705 8.27505Z" fill="#C8F3F4"/>
<path d="M8.6743 21.5808L7.1602 23.0712C6.24744 22.2837 5.49252 21.3301 4.93555 20.261C5.44555 19.759 5.95515 19.2568 6.46435 18.7545C7.01328 19.8296 7.76374 20.7891 8.6749 21.5808H8.6743Z" fill="#C8F3F4"/>
<path d="M10.1633 22.6466L8.65583 24.1316C8.33936 23.95 8.03365 23.7503 7.74023 23.5334L9.25073 22.0455C9.39743 22.1535 9.55433 22.2632 9.72158 22.3727C9.87268 22.4717 10.0199 22.563 10.1633 22.6466Z" fill="#C8F3F4"/>
<path d="M18.8978 16.8359C18.8978 17.4084 18.7528 17.9113 18.4628 18.3446C18.1728 18.7779 17.7678 19.1166 17.2478 19.3606C16.9417 19.5025 16.6178 19.6025 16.2851 19.658V20.7997H14.5682V19.6466C14.265 19.5897 13.9702 19.4945 13.691 19.3634C13.1779 19.1216 12.7593 18.7788 12.4353 18.335C12.1113 17.8912 11.905 17.3662 11.8164 16.76L13.5204 16.495C13.6343 16.9911 13.8731 17.3866 14.2368 17.6815C14.6005 17.9764 15.0349 18.1236 15.54 18.1232C16.0157 18.1232 16.4103 18.0116 16.7237 17.7884C17.0371 17.5652 17.1937 17.2896 17.1936 16.9616C17.1936 16.739 17.1253 16.555 16.9886 16.4095C16.8519 16.264 16.6384 16.1452 16.3481 16.0532L14.1009 15.3599C12.8052 14.9599 12.1574 14.1688 12.1574 12.9866C12.1574 12.431 12.2889 11.9493 12.552 11.5414C12.8151 11.1335 13.1874 10.819 13.6688 10.5979C13.9552 10.4687 14.258 10.3793 14.5688 10.3322V9.2002H16.2854V10.373C16.524 10.4236 16.7567 10.499 16.9796 10.598C17.4371 10.7992 17.8387 11.1088 18.1496 11.5001C18.4628 11.8937 18.691 12.3725 18.8343 12.9364L17.0673 13.2514C17.0135 12.9928 16.9013 12.7499 16.7391 12.5414C16.5799 12.3377 16.3759 12.1735 16.1429 12.0614C15.9056 11.9458 15.6411 11.8835 15.3512 11.8756C15.0737 11.867 14.8222 11.907 14.5968 11.9956C14.3714 12.0842 14.1925 12.2072 14.0601 12.3647C13.9277 12.5228 13.8615 12.7007 13.8614 12.8983C13.8614 13.1168 13.9536 13.3055 14.1389 13.4629C14.3241 13.6202 14.6189 13.7563 15.0224 13.8701L16.6256 14.3249C17.4293 14.5565 18.0088 14.8701 18.3642 15.2656C18.7196 15.6611 18.8975 16.1845 18.8978 16.8359Z" fill="white"/>
<path d="M18.5405 16.8359C18.5405 17.4084 18.3955 17.9113 18.1055 18.3446C17.8155 18.7779 17.4105 19.1166 16.8905 19.3606C16.5843 19.5025 16.2605 19.6025 15.9276 19.658V20.7997H14.2109V19.6466C13.9076 19.5897 13.6129 19.4945 13.3335 19.3634C12.8205 19.1216 12.402 18.7788 12.078 18.335C11.754 17.8912 11.5477 17.3662 11.459 16.76L13.1631 16.495C13.2769 16.9911 13.5157 17.3866 13.8795 17.6815C14.2433 17.9764 14.6777 18.1236 15.1826 18.1232C15.6584 18.1232 16.0529 18.0116 16.3662 17.7884C16.6795 17.5652 16.8362 17.2896 16.8363 16.9616C16.8363 16.739 16.768 16.555 16.6313 16.4095C16.4946 16.264 16.2811 16.1452 15.9908 16.0532L13.7436 15.3599C12.4479 14.9599 11.8 14.1688 11.7999 12.9866C11.7999 12.431 11.9315 11.9493 12.1947 11.5414C12.4579 11.1335 12.8302 10.819 13.3115 10.5979C13.5979 10.4687 13.9008 10.3793 14.2115 10.3322V9.2002H15.9279V10.373C16.1666 10.4236 16.3993 10.499 16.6223 10.598C17.0798 10.7992 17.4814 11.1088 17.7923 11.5001C18.1055 11.8937 18.3337 12.3725 18.477 12.9364L16.71 13.2514C16.6561 12.9927 16.5438 12.7497 16.3815 12.5411C16.2223 12.3375 16.0183 12.1732 15.7853 12.0611C15.548 11.9454 15.284 11.8835 14.9934 11.8753C14.7159 11.8667 14.4645 11.9067 14.2391 11.9953C14.0137 12.0839 13.8349 12.2069 13.7028 12.3644C13.5704 12.5225 13.5042 12.7004 13.5041 12.898C13.5041 13.1165 13.5963 13.3052 13.7816 13.4626C13.9668 13.6199 14.2616 13.756 14.6651 13.8698L16.2683 14.3249C17.072 14.5565 17.6515 14.8701 18.0069 15.2656C18.3623 15.6611 18.5402 16.1845 18.5405 16.8359Z" fill="#36999B"/>
<defs>
<linearGradient id="paint0_linear_1063_32461" x1="2.66016" y1="14.5365" x2="27.3388" y2="14.5365" gradientUnits="userSpaceOnUse">
<stop offset="0.12" stop-color="#ADEDEE"/>
<stop offset="1" stop-color="#4CD8DB"/>
</linearGradient>
<linearGradient id="paint1_linear_1063_32461" x1="14.9309" y1="4.04012" x2="14.9309" y2="23.7587" gradientUnits="userSpaceOnUse">
<stop stop-color="white"/>
<stop offset="0.57" stop-color="#ADEDEE"/>
<stop offset="1" stop-color="#4CD8DB"/>
</linearGradient>
</defs>
</svg>
