<svg xmlns="http://www.w3.org/2000/svg" xmlns:xlink="http://www.w3.org/1999/xlink" width="512" zoomAndPan="magnify" viewBox="0 0 384 383.999986" height="512" preserveAspectRatio="xMidYMid meet" version="1.0"><defs><filter x="0%" y="0%" width="100%" height="100%" id="dc053b0a41"><feColorMatrix values="0 0 0 0 1 0 0 0 0 1 0 0 0 0 1 0 0 0 1 0" color-interpolation-filters="sRGB"/></filter><mask id="24f7fec108"><g filter="url(#dc053b0a41)"><rect x="-38.4" width="460.8" fill="#000000" y="-38.399999" height="460.799983" fill-opacity="0.366"/></g></mask><clipPath id="87f09121f8"><path d="M 1 0.480469 L 138 0.480469 L 138 167 L 1 167 Z M 1 0.480469 " clip-rule="nonzero"/></clipPath><clipPath id="49b1f7eeed"><rect x="0" width="144" y="0" height="172"/></clipPath></defs><path fill="#e3f5f6" d="M 384 192 C 384 195.140625 383.921875 198.28125 383.769531 201.421875 C 383.613281 204.558594 383.382812 207.691406 383.074219 210.820312 C 382.765625 213.945312 382.382812 217.0625 381.921875 220.171875 C 381.460938 223.28125 380.921875 226.375 380.3125 229.457031 C 379.699219 232.539062 379.007812 235.605469 378.246094 238.652344 C 377.480469 241.699219 376.644531 244.726562 375.734375 247.734375 C 374.820312 250.742188 373.835938 253.722656 372.777344 256.683594 C 371.71875 259.640625 370.585938 262.570312 369.382812 265.476562 C 368.183594 268.378906 366.910156 271.25 365.566406 274.089844 C 364.222656 276.929688 362.808594 279.738281 361.328125 282.507812 C 359.847656 285.28125 358.300781 288.011719 356.683594 290.707031 C 355.066406 293.402344 353.386719 296.058594 351.640625 298.667969 C 349.894531 301.28125 348.085938 303.851562 346.214844 306.375 C 344.34375 308.898438 342.410156 311.375 340.417969 313.804688 C 338.425781 316.230469 336.371094 318.609375 334.261719 320.9375 C 332.152344 323.265625 329.984375 325.542969 327.765625 327.765625 C 325.542969 329.984375 323.265625 332.152344 320.9375 334.261719 C 318.609375 336.371094 316.234375 338.425781 313.804688 340.417969 C 311.375 342.410156 308.898438 344.34375 306.375 346.214844 C 303.851562 348.085938 301.28125 349.894531 298.667969 351.640625 C 296.058594 353.386719 293.402344 355.066406 290.707031 356.683594 C 288.011719 358.300781 285.28125 359.847656 282.507812 361.328125 C 279.738281 362.808594 276.929688 364.222656 274.089844 365.566406 C 271.25 366.910156 268.378906 368.183594 265.476562 369.382812 C 262.570312 370.585938 259.640625 371.71875 256.683594 372.777344 C 253.722656 373.835938 250.742188 374.820312 247.734375 375.734375 C 244.726562 376.644531 241.699219 377.480469 238.652344 378.246094 C 235.605469 379.007812 232.539062 379.699219 229.457031 380.3125 C 226.375 380.921875 223.28125 381.460938 220.171875 381.921875 C 217.0625 382.382812 213.945312 382.765625 210.820312 383.074219 C 207.691406 383.382812 204.558594 383.613281 201.421875 383.769531 C 198.28125 383.921875 195.140625 384 192 384 C 188.859375 384 185.71875 383.921875 182.578125 383.769531 C 179.441406 383.613281 176.308594 383.382812 173.179688 383.074219 C 170.054688 382.765625 166.9375 382.382812 163.828125 381.921875 C 160.71875 381.460938 157.625 380.921875 154.542969 380.3125 C 151.460938 379.699219 148.394531 379.007812 145.347656 378.246094 C 142.300781 377.480469 139.273438 376.644531 136.265625 375.734375 C 133.257812 374.820312 130.277344 373.835938 127.316406 372.777344 C 124.359375 371.71875 121.429688 370.585938 118.523438 369.382812 C 115.621094 368.183594 112.75 366.910156 109.910156 365.566406 C 107.070312 364.222656 104.261719 362.808594 101.492188 361.328125 C 98.71875 359.847656 95.988281 358.300781 93.292969 356.683594 C 90.597656 355.066406 87.941406 353.386719 85.332031 351.640625 C 82.71875 349.894531 80.148438 348.085938 77.625 346.214844 C 75.101562 344.34375 72.625 342.410156 70.195312 340.417969 C 67.765625 338.425781 65.390625 336.371094 63.0625 334.261719 C 60.734375 332.152344 58.457031 329.984375 56.234375 327.765625 C 54.011719 325.542969 51.847656 323.265625 49.738281 320.9375 C 47.628906 318.609375 45.574219 316.230469 43.582031 313.804688 C 41.589844 311.375 39.65625 308.898438 37.785156 306.375 C 35.914062 303.851562 34.105469 301.28125 32.359375 298.667969 C 30.613281 296.058594 28.929688 293.402344 27.316406 290.707031 C 25.699219 288.011719 24.152344 285.28125 22.671875 282.507812 C 21.191406 279.738281 19.777344 276.929688 18.433594 274.089844 C 17.089844 271.25 15.816406 268.378906 14.613281 265.476562 C 13.414062 262.570312 12.28125 259.640625 11.222656 256.683594 C 10.164062 253.722656 9.179688 250.742188 8.265625 247.734375 C 7.355469 244.726562 6.515625 241.699219 5.753906 238.652344 C 4.992188 235.605469 4.300781 232.539062 3.6875 229.457031 C 3.078125 226.375 2.539062 223.28125 2.078125 220.171875 C 1.617188 217.0625 1.234375 213.945312 0.925781 210.820312 C 0.617188 207.691406 0.386719 204.558594 0.230469 201.421875 C 0.078125 198.28125 0 195.140625 0 192 C 0 188.859375 0.078125 185.71875 0.230469 182.578125 C 0.386719 179.441406 0.617188 176.308594 0.925781 173.179688 C 1.234375 170.054688 1.617188 166.9375 2.078125 163.828125 C 2.539062 160.71875 3.078125 157.625 3.6875 154.542969 C 4.300781 151.460938 4.992188 148.394531 5.753906 145.347656 C 6.515625 142.300781 7.355469 139.273438 8.265625 136.265625 C 9.179688 133.257812 10.164062 130.277344 11.222656 127.316406 C 12.28125 124.359375 13.414062 121.429688 14.613281 118.523438 C 15.816406 115.621094 17.089844 112.75 18.433594 109.910156 C 19.777344 107.070312 21.191406 104.261719 22.671875 101.492188 C 24.152344 98.71875 25.699219 95.988281 27.316406 93.292969 C 28.929688 90.597656 30.613281 87.941406 32.359375 85.332031 C 34.105469 82.71875 35.914062 80.148438 37.785156 77.625 C 39.65625 75.101562 41.589844 72.625 43.582031 70.195312 C 45.574219 67.765625 47.628906 65.390625 49.738281 63.0625 C 51.847656 60.734375 54.011719 58.457031 56.234375 56.234375 C 58.457031 54.011719 60.734375 51.847656 63.0625 49.738281 C 65.390625 47.628906 67.765625 45.574219 70.195312 43.582031 C 72.625 41.589844 75.101562 39.65625 77.625 37.785156 C 80.148438 35.914062 82.71875 34.105469 85.332031 32.359375 C 87.941406 30.613281 90.597656 28.929688 93.292969 27.316406 C 95.988281 25.699219 98.71875 24.152344 101.492188 22.671875 C 104.261719 21.191406 107.070312 19.777344 109.910156 18.433594 C 112.75 17.089844 115.621094 15.816406 118.523438 14.613281 C 121.429688 13.414062 124.359375 12.28125 127.316406 11.222656 C 130.277344 10.164062 133.257812 9.179688 136.265625 8.265625 C 139.273438 7.355469 142.300781 6.515625 145.347656 5.753906 C 148.394531 4.992188 151.460938 4.300781 154.542969 3.6875 C 157.625 3.078125 160.71875 2.539062 163.828125 2.078125 C 166.9375 1.617188 170.054688 1.234375 173.179688 0.925781 C 176.308594 0.617188 179.441406 0.386719 182.578125 0.230469 C 185.71875 0.078125 188.859375 0 192 0 C 195.140625 0 198.28125 0.078125 201.421875 0.230469 C 204.558594 0.386719 207.691406 0.617188 210.820312 0.925781 C 213.945312 1.234375 217.0625 1.617188 220.171875 2.078125 C 223.28125 2.539062 226.375 3.078125 229.457031 3.6875 C 232.539062 4.300781 235.605469 4.992188 238.652344 5.753906 C 241.699219 6.515625 244.726562 7.355469 247.734375 8.265625 C 250.742188 9.179688 253.722656 10.164062 256.683594 11.222656 C 259.640625 12.28125 262.570312 13.414062 265.476562 14.613281 C 268.378906 15.816406 271.25 17.089844 274.089844 18.433594 C 276.929688 19.777344 279.738281 21.191406 282.507812 22.671875 C 285.28125 24.152344 288.011719 25.699219 290.707031 27.316406 C 293.402344 28.929688 296.058594 30.613281 298.667969 32.359375 C 301.28125 34.105469 303.851562 35.914062 306.375 37.785156 C 308.898438 39.65625 311.375 41.589844 313.804688 43.582031 C 316.234375 45.574219 318.609375 47.628906 320.9375 49.738281 C 323.265625 51.847656 325.542969 54.011719 327.765625 56.234375 C 329.984375 58.457031 332.152344 60.734375 334.261719 63.0625 C 336.371094 65.390625 338.425781 67.765625 340.417969 70.195312 C 342.410156 72.625 344.34375 75.101562 346.214844 77.625 C 348.085938 80.148438 349.894531 82.71875 351.640625 85.332031 C 353.386719 87.941406 355.066406 90.597656 356.683594 93.292969 C 358.300781 95.988281 359.847656 98.71875 361.328125 101.492188 C 362.808594 104.261719 364.222656 107.070312 365.566406 109.910156 C 366.910156 112.75 368.183594 115.621094 369.382812 118.523438 C 370.585938 121.429688 371.71875 124.359375 372.777344 127.316406 C 373.835938 130.277344 374.820312 133.257812 375.734375 136.265625 C 376.644531 139.273438 377.480469 142.300781 378.246094 145.347656 C 379.007812 148.394531 379.699219 151.460938 380.3125 154.542969 C 380.921875 157.625 381.460938 160.71875 381.921875 163.828125 C 382.382812 166.9375 382.765625 170.054688 383.074219 173.179688 C 383.382812 176.308594 383.613281 179.441406 383.769531 182.578125 C 383.921875 185.71875 384 188.859375 384 192 Z M 384 192 " fill-opacity="1" fill-rule="nonzero"/><g mask="url(#24f7fec108)"><g transform="matrix(1, 0, 0, 1, 67, 96)"><g clip-path="url(#49b1f7eeed)"><g clip-path="url(#87f09121f8)"><path fill="#4cd8db" d="M 86.058594 166.976562 L 84.273438 166.976562 C 80.183594 166.980469 76.113281 166.683594 72.0625 166.085938 C 68.015625 165.488281 64.035156 164.597656 60.117188 163.410156 C 56.203125 162.222656 52.394531 160.75 48.699219 159 C 45 157.246094 41.453125 155.230469 38.050781 152.953125 L 18.425781 164.730469 C 11.25 169.039062 6.605469 165.875 8.058594 157.617188 L 13.398438 127.324219 C 12.117188 125.238281 10.933594 123.101562 9.839844 120.914062 C 8.75 118.722656 7.757812 116.488281 6.863281 114.210938 C 5.96875 111.9375 5.175781 109.625 4.484375 107.277344 C 3.792969 104.929688 3.207031 102.554688 2.726562 100.15625 C 2.246094 97.757812 1.871094 95.34375 1.601562 92.910156 C 1.332031 90.480469 1.171875 88.042969 1.121094 85.59375 C 1.066406 83.148438 1.121094 80.707031 1.285156 78.265625 C 1.445312 75.824219 1.714844 73.394531 2.09375 70.976562 C 2.46875 68.558594 2.953125 66.164062 3.539062 63.789062 C 4.128906 61.414062 4.820312 59.070312 5.613281 56.753906 C 6.410156 54.441406 7.304688 52.167969 8.300781 49.933594 C 9.296875 47.699219 10.390625 45.511719 11.578125 43.371094 C 12.765625 41.234375 14.046875 39.152344 15.417969 37.128906 C 16.789062 35.101562 18.25 33.140625 19.792969 31.242188 C 21.339844 29.347656 22.964844 27.523438 24.671875 25.769531 C 26.378906 24.015625 28.15625 22.339844 30.011719 20.742188 C 31.867188 19.148438 33.785156 17.636719 35.773438 16.207031 C 37.761719 14.78125 39.808594 13.445312 41.914062 12.199219 C 44.019531 10.953125 46.171875 9.800781 48.378906 8.746094 C 50.585938 7.6875 52.835938 6.730469 55.128906 5.875 C 57.417969 5.015625 59.742188 4.261719 62.101562 3.605469 C 64.460938 2.953125 66.839844 2.40625 69.246094 1.964844 C 71.652344 1.523438 74.074219 1.1875 76.511719 0.957031 C 78.945312 0.726562 81.386719 0.605469 83.832031 0.59375 C 86.28125 0.578125 88.722656 0.671875 91.160156 0.875 C 93.597656 1.078125 96.023438 1.386719 98.433594 1.800781 C 100.84375 2.214844 103.234375 2.738281 105.597656 3.363281 C 107.964844 3.988281 110.296875 4.71875 112.597656 5.550781 C 114.898438 6.382812 117.15625 7.316406 119.375 8.347656 C 121.59375 9.378906 123.761719 10.503906 125.882812 11.726562 C 128 12.949219 130.0625 14.265625 132.066406 15.667969 C 134.070312 17.074219 136.007812 18.5625 137.878906 20.136719 C 135.882812 20.386719 133.902344 20.703125 131.929688 21.085938 C 129.957031 21.46875 128 21.921875 126.058594 22.441406 C 124.117188 22.964844 122.195312 23.550781 120.296875 24.203125 C 118.394531 24.855469 116.519531 25.574219 114.671875 26.359375 C 112.820312 27.140625 111 27.988281 109.207031 28.894531 C 107.414062 29.804688 105.65625 30.777344 103.929688 31.808594 C 102.207031 32.839844 100.519531 33.929688 98.871094 35.074219 C 97.222656 36.222656 95.613281 37.429688 94.046875 38.6875 C 92.480469 39.945312 90.960938 41.257812 89.488281 42.625 C 88.011719 43.988281 86.585938 45.402344 85.210938 46.867188 C 83.832031 48.332031 82.507812 49.839844 81.234375 51.394531 C 79.964844 52.949219 78.746094 54.546875 77.585938 56.1875 C 76.421875 57.828125 75.320312 59.503906 74.273438 61.222656 C 73.230469 62.9375 72.246094 64.6875 71.320312 66.472656 C 70.398438 68.257812 69.535156 70.070312 68.738281 71.914062 C 67.9375 73.761719 67.207031 75.628906 66.535156 77.523438 C 65.867188 79.417969 65.265625 81.335938 64.730469 83.273438 C 64.195312 85.207031 63.726562 87.160156 63.324219 89.128906 C 62.925781 91.101562 62.59375 93.082031 62.328125 95.074219 C 62.066406 97.066406 61.871094 99.0625 61.746094 101.070312 C 61.621094 103.074219 61.566406 105.082031 61.582031 107.089844 C 61.59375 109.101562 61.679688 111.109375 61.832031 113.109375 C 61.984375 115.113281 62.207031 117.109375 62.5 119.097656 C 62.789062 121.085938 63.152344 123.0625 63.578125 125.027344 C 64.007812 126.988281 64.503906 128.933594 65.066406 130.863281 C 65.628906 132.792969 66.257812 134.699219 66.953125 136.585938 C 67.652344 138.472656 68.410156 140.328125 69.234375 142.164062 C 70.058594 143.996094 70.945312 145.796875 71.894531 147.566406 C 72.84375 149.339844 73.851562 151.074219 74.921875 152.777344 C 75.992188 154.476562 77.121094 156.140625 78.304688 157.761719 C 79.488281 159.386719 80.726562 160.96875 82.023438 162.503906 C 83.316406 164.042969 84.660156 165.53125 86.058594 166.976562 Z M 86.058594 166.976562 " fill-opacity="1" fill-rule="nonzero"/></g></g></g></g><path fill="#4cd8db" d="M 120.890625 199.109375 C 120.890625 197.46875 120.9375 195.828125 121.03125 194.191406 C 121.128906 192.554688 121.269531 190.917969 121.460938 189.289062 C 121.648438 187.65625 121.886719 186.035156 122.167969 184.417969 C 122.453125 182.800781 122.78125 181.195312 123.160156 179.597656 C 123.535156 178 123.957031 176.414062 124.421875 174.839844 C 124.890625 173.265625 125.402344 171.707031 125.960938 170.164062 C 126.519531 168.621094 127.121094 167.09375 127.765625 165.585938 C 128.410156 164.074219 129.097656 162.585938 129.832031 161.117188 C 130.5625 159.648438 131.335938 158.203125 132.148438 156.777344 C 132.964844 155.351562 133.820312 153.953125 134.714844 152.578125 C 135.613281 151.199219 136.546875 149.851562 137.519531 148.53125 C 138.492188 147.210938 139.503906 145.917969 140.550781 144.65625 C 141.601562 143.390625 142.683594 142.160156 143.804688 140.960938 C 144.921875 139.757812 146.074219 138.589844 147.261719 137.457031 C 148.449219 136.324219 149.664062 135.222656 150.914062 134.160156 C 152.164062 133.097656 153.445312 132.070312 154.753906 131.078125 C 156.0625 130.089844 157.398438 129.136719 158.765625 128.226562 C 160.128906 127.3125 161.515625 126.441406 162.933594 125.609375 C 164.347656 124.773438 165.785156 123.984375 167.242188 123.234375 C 168.703125 122.484375 170.183594 121.777344 171.683594 121.113281 C 173.1875 120.449219 174.703125 119.828125 176.242188 119.25 C 177.777344 118.675781 179.328125 118.144531 180.898438 117.65625 C 182.464844 117.167969 184.042969 116.726562 185.636719 116.332031 C 187.230469 115.9375 188.832031 115.585938 190.445312 115.28125 C 192.058594 114.980469 193.679688 114.722656 195.308594 114.511719 C 196.933594 114.300781 198.566406 114.140625 200.203125 114.023438 C 201.84375 113.910156 203.480469 113.839844 205.121094 113.820312 C 206.761719 113.796875 208.402344 113.824219 210.042969 113.898438 C 211.683594 113.96875 213.320312 114.089844 214.953125 114.257812 C 216.585938 114.425781 218.210938 114.640625 219.832031 114.902344 C 221.453125 115.164062 223.0625 115.472656 224.664062 115.828125 C 226.269531 116.183594 227.859375 116.582031 229.4375 117.03125 C 231.019531 117.476562 232.582031 117.96875 234.132812 118.503906 C 235.683594 119.042969 237.21875 119.625 238.738281 120.25 C 240.253906 120.875 241.753906 121.542969 243.230469 122.253906 C 244.710938 122.964844 246.167969 123.71875 247.601562 124.515625 C 249.039062 125.3125 250.449219 126.148438 251.835938 127.027344 C 253.222656 127.902344 254.585938 128.820312 255.917969 129.777344 C 257.253906 130.730469 258.558594 131.726562 259.835938 132.757812 C 261.113281 133.789062 262.359375 134.855469 263.574219 135.957031 C 264.789062 137.0625 265.972656 138.199219 267.121094 139.371094 C 268.269531 140.539062 269.386719 141.746094 270.464844 142.980469 C 271.546875 144.214844 272.589844 145.480469 273.597656 146.777344 C 274.605469 148.074219 275.574219 149.398438 276.503906 150.75 C 277.433594 152.101562 278.328125 153.476562 279.179688 154.882812 C 280.027344 156.285156 280.839844 157.710938 281.609375 159.160156 C 282.378906 160.609375 283.105469 162.082031 283.789062 163.574219 C 284.472656 165.066406 285.113281 166.578125 285.710938 168.105469 C 286.308594 169.632812 286.859375 171.179688 287.367188 172.738281 C 287.875 174.300781 288.335938 175.875 288.753906 177.460938 C 289.171875 179.050781 289.542969 180.648438 289.867188 182.257812 C 290.191406 183.863281 290.46875 185.480469 290.703125 187.105469 C 290.933594 188.730469 291.117188 190.363281 291.253906 191.996094 C 291.394531 193.632812 291.484375 195.269531 291.527344 196.910156 C 291.570312 198.550781 291.566406 200.191406 291.511719 201.832031 C 291.460938 203.472656 291.363281 205.113281 291.214844 206.746094 C 291.070312 208.382812 290.875 210.011719 290.636719 211.632812 C 290.394531 213.257812 290.109375 214.871094 289.777344 216.480469 C 289.441406 218.085938 289.0625 219.683594 288.636719 221.269531 C 288.210938 222.855469 287.742188 224.425781 287.226562 225.984375 C 286.707031 227.542969 286.148438 229.082031 285.542969 230.609375 C 284.9375 232.132812 284.289062 233.640625 283.597656 235.128906 C 282.90625 236.617188 282.171875 238.085938 281.394531 239.53125 C 280.617188 240.976562 279.800781 242.398438 278.941406 243.796875 L 284.535156 275.546875 C 285.960938 283.582031 281.421875 286.726562 274.402344 282.515625 L 253.652344 270.058594 C 252.054688 271.125 250.425781 272.140625 248.761719 273.097656 C 247.09375 274.054688 245.398438 274.953125 243.671875 275.796875 C 241.945312 276.640625 240.195312 277.425781 238.414062 278.148438 C 236.636719 278.875 234.835938 279.539062 233.011719 280.140625 C 231.1875 280.742188 229.34375 281.285156 227.484375 281.761719 C 225.625 282.242188 223.75 282.65625 221.859375 283.007812 C 219.972656 283.363281 218.074219 283.648438 216.167969 283.875 C 214.257812 284.097656 212.34375 284.257812 210.425781 284.351562 C 208.507812 284.445312 206.589844 284.476562 204.667969 284.441406 C 202.746094 284.40625 200.828125 284.304688 198.917969 284.140625 C 197.003906 283.976562 195.097656 283.75 193.199219 283.453125 C 191.300781 283.160156 189.414062 282.804688 187.539062 282.382812 C 185.664062 281.964844 183.804688 281.480469 181.964844 280.933594 C 180.121094 280.386719 178.300781 279.78125 176.5 279.113281 C 174.699219 278.441406 172.921875 277.714844 171.171875 276.925781 C 169.421875 276.136719 167.699219 275.289062 166.003906 274.382812 C 164.308594 273.476562 162.648438 272.515625 161.019531 271.5 C 159.390625 270.480469 157.796875 269.410156 156.238281 268.285156 C 154.683594 267.160156 153.164062 265.984375 151.6875 264.753906 C 150.210938 263.527344 148.773438 262.25 147.382812 260.925781 C 145.992188 259.601562 144.648438 258.230469 143.347656 256.816406 C 142.050781 255.402344 140.800781 253.945312 139.601562 252.445312 C 138.398438 250.945312 137.25 249.40625 136.15625 247.828125 C 135.058594 246.25 134.015625 244.636719 133.027344 242.992188 C 132.042969 241.34375 131.109375 239.664062 130.234375 237.953125 C 129.363281 236.242188 128.546875 234.503906 127.789062 232.738281 C 127.03125 230.972656 126.335938 229.183594 125.699219 227.371094 C 125.066406 225.558594 124.492188 223.726562 123.976562 221.875 C 123.464844 220.023438 123.015625 218.15625 122.632812 216.277344 C 122.246094 214.394531 121.921875 212.5 121.664062 210.597656 C 121.40625 208.695312 121.210938 206.785156 121.082031 204.867188 C 120.953125 202.949219 120.886719 201.03125 120.890625 199.109375 Z M 120.890625 199.109375 " fill-opacity="1" fill-rule="nonzero"/></svg>