<svg width="73" height="71" viewBox="0 0 73 71" fill="none" xmlns="http://www.w3.org/2000/svg">
<g clip-path="url(#clip0_69_1293)">
<path fill-rule="evenodd" clip-rule="evenodd" d="M72.9193 45C72.9167 51.764 70.2279 58.25 65.4441 63.0318C60.6603 67.8137 54.1733 70.5 47.4093 70.5H47.0693C45.2449 70.4735 43.4283 70.2556 41.6493 69.85C37.6371 68.9237 33.9102 67.0362 30.7893 64.35V11.84C29.1039 11.1794 27.3096 10.8402 25.4993 10.84H25.3693C21.7545 10.8634 18.2758 12.2215 15.6013 14.6535C12.9269 17.0854 11.2452 20.4198 10.8794 24.0161C10.5136 27.6124 11.4894 31.217 13.6194 34.1377C15.7494 37.0584 18.8833 39.0892 22.4193 39.84C23.0233 39.969 23.6343 40.0625 24.2493 40.12C24.5535 40.1403 24.8386 40.2757 25.0466 40.4986C25.2547 40.7214 25.37 41.0152 25.3693 41.32V49.78C25.3695 49.9428 25.3366 50.1039 25.2726 50.2535C25.2086 50.4032 25.1148 50.5382 24.997 50.6505C24.8791 50.7627 24.7395 50.8498 24.5869 50.9065C24.4343 50.9631 24.2718 50.9881 24.1093 50.98C23.5893 50.98 23.1094 50.91 22.5794 50.85C16.1241 50.102 10.1977 46.9186 6.00978 41.9496C1.82185 36.9806 -0.311813 30.6007 0.0442016 24.112C0.400217 17.6234 3.21913 11.5152 7.92555 7.03421C12.632 2.55324 18.871 0.0373419 25.3693 1.63596e-05H25.4993C31.387 -0.00665788 37.0947 2.02903 41.6493 5.76001V58.48C43.3662 59.2077 45.2051 59.6047 47.0693 59.65H47.4093C51.0351 59.6584 54.5355 58.3228 57.2341 55.9012C59.9328 53.4797 61.6383 50.1439 62.0213 46.5383C62.4042 42.9328 61.4373 39.3132 59.3075 36.3788C57.1777 33.4444 54.036 31.4034 50.4893 30.65C49.7279 30.5219 48.9601 30.4351 48.1893 30.39C47.8851 30.3697 47.6001 30.2343 47.3921 30.0115C47.1841 29.7886 47.0687 29.4949 47.0693 29.19V20.72C47.0692 20.5581 47.1018 20.3979 47.1652 20.2489C47.2286 20.1 47.3215 19.9654 47.4382 19.8533C47.555 19.7412 47.6933 19.6539 47.8447 19.5966C47.9962 19.5393 48.1576 19.5133 48.3193 19.52C49.0193 19.52 49.8393 19.59 50.3193 19.65C56.5422 20.3623 62.2853 23.34 66.4534 28.0154C70.6215 32.6907 72.9231 38.7365 72.9193 45Z" fill="#4CD8DB"/>
</g>
<defs>
<clipPath id="clip0_69_1293">
<rect width="72.92" height="70.5" fill="white"/>
</clipPath>
</defs>
</svg>
