<svg width="117" height="22" viewBox="0 0 117 22" fill="none" xmlns="http://www.w3.org/2000/svg">

<g clip-path="url(#clip0_545_15276)">
<rect width="375" height="1920" transform="translate(-16 -67)" fill="white"/>
<path fill-rule="evenodd" clip-rule="evenodd" d="M81.3156 6.45384C81.0333 6.42169 80.3902 6.40382 80.3616 6.4074V9.57999C80.3938 9.57999 81.0726 9.61214 81.362 9.67288C84.0952 10.2588 85.8601 13.4421 83.938 16.5147C83.2234 17.6544 81.9015 18.201 80.5581 18.151C80.4903 18.151 80.426 18.151 80.3616 18.151C79.8007 18.1367 79.2648 18.0188 78.7753 17.808V2.39164C77.8679 1.64851 76.7853 1.11974 75.5992 0.86965C75.2526 0.798196 74.8989 0.758896 74.5381 0.733887V3.91005C74.9097 3.95292 75.2633 4.03867 75.5992 4.16729V19.5193C76.4959 20.2911 77.5821 20.852 78.7753 21.1271C79.2863 21.245 79.8186 21.3093 80.3616 21.3164C80.3938 21.3164 80.426 21.3164 80.4581 21.3164C84.5775 21.3164 87.918 17.9759 87.918 13.8566C87.918 10.0266 85.0312 6.87185 81.3156 6.4467V6.45384Z" fill="#4CD8DB"/>
<path d="M7.52061 9.33297C4.98397 9.33297 3.16545 11.2337 3.16545 14.0168C3.16545 16.8 4.98397 18.7007 7.52061 18.7007C9.36772 18.7007 10.854 18.0933 11.8472 16.9358L13.6121 18.7007C12.2902 20.437 10.168 21.4303 7.38485 21.4303C3.02968 21.4303 0 18.4256 0 14.0168C0 9.60807 3.02968 6.5498 7.38485 6.5498C10.0322 6.5498 12.0973 7.40369 13.4478 8.94711L11.7114 10.9871C10.6932 9.94033 9.28555 9.30439 7.52061 9.33297Z" fill="black"/>
<path d="M15.8525 6.66089V9.83705C16.2241 9.87993 16.5778 9.96567 16.9136 10.0943V12.145V21.3198H20.0827V8.31864C19.1752 7.57551 18.0998 7.04674 16.9136 6.79665C16.5707 6.7252 16.2134 6.6859 15.8525 6.66089Z" fill="black"/>
<path d="M18.4858 4.39933C19.5326 4.39933 20.3329 3.57403 20.3329 2.47005C20.3329 1.36607 19.5326 0.540771 18.4858 0.540771C17.439 0.540771 16.6387 1.34106 16.6387 2.47005C16.6387 3.59904 17.439 4.39933 18.4858 4.39933Z" fill="black"/>
<path d="M32.9839 6.5498V9.58306C30.0363 9.41871 28.1607 11.1551 27.9141 13.6631V21.3231H24.7451V6.66056H27.9141V9.58306C28.9074 7.60019 30.6687 6.5498 32.9839 6.5498Z" fill="black"/>
<path d="M41.7442 9.33297C39.2076 9.33297 37.3891 11.2337 37.3891 14.0168C37.3891 16.8 39.2076 18.7007 41.7442 18.7007C43.5914 18.7007 45.0776 18.0933 46.0708 16.9358L47.8358 18.7007C46.5139 20.437 44.3916 21.4303 41.6085 21.4303C37.2533 21.4303 34.2236 18.4256 34.2236 14.0168C34.2236 9.60807 37.2533 6.5498 41.6085 6.5498C44.2559 6.5498 46.3209 7.40369 47.6714 8.94711L45.9351 10.9871C44.9168 9.94033 43.5092 9.30439 41.7442 9.33297Z" fill="black"/>
<path d="M51.2798 0.86965C50.9369 0.798196 50.5796 0.758896 50.2188 0.733887V3.91005C50.5903 3.95292 50.944 4.03867 51.2798 4.16729V6.21804V21.32H54.4489V2.39164C53.5414 1.64851 52.466 1.11974 51.2798 0.86965Z" fill="black"/>
<path fill-rule="evenodd" clip-rule="evenodd" d="M116.204 17.9581C115.35 18.3725 114.66 18.5904 113.999 18.5904C113.006 18.5904 112.427 18.1224 112.427 16.6076V9.57999H116.754V7.21126H112.452V2.39164C111.545 1.64851 110.469 1.11974 109.283 0.86965C108.94 0.798196 108.583 0.758896 108.222 0.733887V3.91005C108.594 3.95293 108.947 4.03867 109.287 4.16729V7.21126H107.222V9.57999H109.287V17.1864C109.287 20.191 111.187 21.4593 113.392 21.4593C114.632 21.4593 115.846 21.0735 117 20.384L116.2 17.9581H116.204Z" fill="#4CD8DB"/>
<path d="M61.0366 12.8878C61.3653 10.5441 63.0195 9.08645 65.3346 9.08645C67.6497 9.08645 69.3039 10.5191 69.4147 12.8878H62.5443V15.203H72.1692C72.5551 9.91175 70.4615 6.5498 65.306 6.5498C60.9508 6.57839 57.8926 9.58306 57.8926 14.0168C57.8926 18.4506 60.8687 21.4303 65.3882 21.4303C67.9248 21.4303 70.0185 20.5192 71.4511 18.9508L69.7684 17.1608C68.693 18.2648 67.2317 18.8686 65.6347 18.8686C63.3196 18.8686 61.5832 17.4645 61.0866 15.203C60.9616 14.4741 60.9365 13.706 61.033 12.8878H61.0366Z" fill="black"/>
<path d="M94.27 12.8878C94.5987 10.5441 96.2529 9.08645 98.568 9.08645C100.883 9.08645 102.537 10.5191 102.648 12.8878H95.7777V15.203H105.403C105.788 9.91175 103.695 6.5498 98.5394 6.5498C94.1842 6.57839 91.126 9.58306 91.126 14.0168C91.126 18.4506 94.1021 21.4303 98.6216 21.4303C101.158 21.4303 103.252 20.5192 104.685 18.9508L103.002 17.1608C101.926 18.2648 100.465 18.8686 98.8681 18.8686C96.553 18.8686 94.8166 17.4645 94.32 15.203C94.195 14.4741 94.1699 13.706 94.2664 12.8878H94.27Z" fill="#4CD8DB"/>
</g>
<defs>
<clipPath id="clip0_545_15276">
<rect width="375" height="1920" fill="white" transform="translate(-16 -67)"/>
</clipPath>
</defs>
</svg>
