<svg width="95" height="95" viewBox="0 0 95 95" fill="none" xmlns="http://www.w3.org/2000/svg">
<path d="M47.4618 94.1184C73.2093 94.1184 94.0818 73.2459 94.0818 47.4984C94.0818 21.7509 73.2093 0.878418 47.4618 0.878418C21.7143 0.878418 0.841797 21.7509 0.841797 47.4984C0.841797 73.2459 21.7143 94.1184 47.4618 94.1184Z" fill="url(#paint0_linear_1261_32339)"/>
<path d="M47.4627 85.2383C68.3059 85.2383 85.2027 68.3415 85.2027 47.4983C85.2027 26.6551 68.3059 9.7583 47.4627 9.7583C26.6194 9.7583 9.72266 26.6551 9.72266 47.4983C9.72266 68.3415 26.6194 85.2383 47.4627 85.2383Z" fill="#EDFBFB"/>
<path d="M64.1281 67.9222L70.6227 54.933C72.3243 51.5298 74.0548 44.6391 68.1248 41.9438C62.6294 39.4459 59.0039 45.0033 59.0039 45.0033L56.1348 67.9222H64.1281Z" fill="url(#paint1_linear_1261_32339)"/>
<path d="M51.6393 34.4498C50.1405 33.9503 49.1413 30.9528 49.1413 30.9528C50.3244 30.9438 51.5004 30.7759 52.6384 30.4532C53.2979 30.2458 53.9943 30.1814 54.6807 30.2638C54.955 30.2898 55.1983 30.089 55.2243 29.8152C55.2353 29.7018 55.2068 29.5884 55.1443 29.4935C54.7512 28.884 54.2386 28.3604 53.6376 27.9553C52.7214 27.3802 51.5563 27.3802 50.6401 27.9553C50.6401 27.9553 50.9553 25.834 49.6409 24.9577C49.007 24.5296 48.4714 23.9711 48.0707 23.3191C47.9269 23.0828 47.6186 23.0079 47.3823 23.1518C47.3139 23.1932 47.2564 23.2507 47.215 23.3191C46.8138 23.9711 46.2782 24.5296 45.6443 24.9577C44.3299 25.834 44.6451 27.9553 44.6451 27.9553C43.7289 27.3802 42.5638 27.3802 41.6476 27.9553C41.0466 28.3604 40.534 28.884 40.1408 29.4935C39.9895 29.7233 40.0529 30.0325 40.2827 30.1839C40.3777 30.2463 40.4911 30.2748 40.6045 30.2638C41.2909 30.1814 41.9873 30.2458 42.6468 30.4532C43.7848 30.7759 44.9608 30.9438 46.1438 30.9528C46.1438 30.9528 45.1447 33.9503 43.6459 34.4498V37.9469H51.6393V34.4498Z" fill="url(#paint2_linear_1261_32339)"/>
<path d="M31.1559 67.9222L24.6613 54.933C22.9597 51.5298 21.2291 44.6391 27.1592 41.9438C32.6546 39.4459 36.2801 45.0033 36.2801 45.0033L39.1492 67.9222H31.1559Z" fill="url(#paint3_linear_1261_32339)"/>
<path d="M27.3927 41.8499C26.7403 45.312 27.5995 49.0594 28.6572 51.4389C30.0185 54.5013 36.1509 67.9251 36.1509 67.9251H39.1484L36.2793 45.0062C36.2793 45.0062 32.7557 39.6132 27.3927 41.8499Z" fill="white"/>
<path d="M67.8983 41.8499C68.5512 45.312 67.6915 49.0594 66.6338 51.4389C65.2725 54.5013 59.1401 67.9251 59.1401 67.9251H56.1426L59.0117 45.0062C59.0122 45.0062 62.5352 39.6132 67.8983 41.8499Z" fill="white"/>
<path d="M38.1499 67.9207C38.1499 67.9207 32.017 54.4969 30.6561 51.4344C28.6578 46.9382 27.3629 37.557 35.6519 34.4486C43.6453 31.4511 47.642 37.9456 47.642 37.9456V67.9207H38.1499Z" fill="url(#paint4_linear_1261_32339)"/>
<path d="M57.1347 67.9207C57.1347 67.9207 63.2671 54.4969 64.6284 51.4344C66.6268 46.9382 67.9217 37.557 59.6326 34.4486C51.6392 31.4511 47.6426 37.9456 47.6426 37.9456V67.9207H57.1347Z" fill="url(#paint5_linear_1261_32339)"/>
<path d="M59.6322 34.4504C57.6438 33.6361 55.4542 33.4513 53.3574 33.9209C53.9634 34.0558 54.5594 34.2326 55.1409 34.4504C63.434 37.5579 62.1351 46.94 60.1367 51.4363C59.5987 52.6483 58.3128 55.4839 56.9549 58.4679C56.1651 60.2494 55.0665 61.8776 53.7091 63.2759C51.8916 65.1109 49.6989 66.4238 47.1426 66.4238L48.1417 67.9226H57.1343C57.1343 67.9226 63.2691 54.4987 64.628 51.4363C66.6263 46.94 67.9203 37.5579 59.6322 34.4504Z" fill="url(#paint6_linear_1261_32339)"/>
<path d="M28.1574 67.9209H67.1249C67.6769 67.9209 68.1241 68.368 68.1241 68.9201V70.9184C68.1241 71.4704 67.6769 71.9176 67.1249 71.9176H28.1574C27.6053 71.9176 27.1582 71.4704 27.1582 70.9184V68.9201C27.1582 68.368 27.6053 67.9209 28.1574 67.9209Z" fill="url(#paint7_linear_1261_32339)"/>
<path d="M45.8945 71.9176H67.1258C67.6779 71.9176 68.125 71.4704 68.125 70.9184V68.9201C68.125 68.368 67.6779 67.9209 67.1258 67.9209H61.9521C60.4489 68.8781 56.1095 70.9604 45.8945 71.9176Z" fill="url(#paint8_linear_1261_32339)"/>
<path d="M48.6409 36.7192V67.9282H46.6426V36.7192C47.0158 37.0964 47.3505 37.5101 47.6417 37.9532C47.933 37.5101 48.2677 37.0964 48.6409 36.7192Z" fill="white"/>
<path d="M46.6425 50.4385C46.6425 50.4385 45.6433 66.4252 37.1504 66.4252L38.1496 67.9239H46.6425V50.4385Z" fill="url(#paint9_linear_1261_32339)"/>
<defs>
<linearGradient id="paint0_linear_1261_32339" x1="37.728" y1="-7.34282" x2="64.122" y2="84.5425" gradientUnits="userSpaceOnUse">
<stop offset="0.12" stop-color="#ADEDEE"/>
<stop offset="1" stop-color="#4CD8DB"/>
</linearGradient>
<linearGradient id="paint1_linear_1261_32339" x1="62.5072" y1="38.9508" x2="73.5113" y2="62.1284" gradientUnits="userSpaceOnUse">
<stop offset="0.12" stop-color="#ADEDEE"/>
<stop offset="1" stop-color="#4CD8DB"/>
</linearGradient>
<linearGradient id="paint2_linear_1261_32339" x1="46.0591" y1="21.7676" x2="47.6871" y2="47.3429" gradientUnits="userSpaceOnUse">
<stop offset="0.12" stop-color="#ADEDEE"/>
<stop offset="1" stop-color="#4CD8DB"/>
</linearGradient>
<linearGradient id="paint3_linear_1261_32339" x1="29.4135" y1="38.9508" x2="40.4175" y2="62.1284" gradientUnits="userSpaceOnUse">
<stop offset="0.12" stop-color="#ADEDEE"/>
<stop offset="1" stop-color="#4CD8DB"/>
</linearGradient>
<linearGradient id="paint4_linear_1261_32339" x1="36.474" y1="30.6372" x2="51.6396" y2="59.1102" gradientUnits="userSpaceOnUse">
<stop offset="0.12" stop-color="#ADEDEE"/>
<stop offset="1" stop-color="#4CD8DB"/>
</linearGradient>
<linearGradient id="paint5_linear_1261_32339" x1="54.9525" y1="30.6372" x2="70.1181" y2="59.1102" gradientUnits="userSpaceOnUse">
<stop offset="0.12" stop-color="#ADEDEE"/>
<stop offset="1" stop-color="#4CD8DB"/>
</linearGradient>
<linearGradient id="paint6_linear_1261_32339" x1="54.65" y1="30.6466" x2="69.5833" y2="59.4468" gradientUnits="userSpaceOnUse">
<stop offset="0.12" stop-color="#ADEDEE"/>
<stop offset="1" stop-color="#4CD8DB"/>
</linearGradient>
<linearGradient id="paint7_linear_1261_32339" x1="43.3645" y1="67.5685" x2="43.4839" y2="71.8287" gradientUnits="userSpaceOnUse">
<stop offset="0.12" stop-color="#ADEDEE"/>
<stop offset="1" stop-color="#4CD8DB"/>
</linearGradient>
<linearGradient id="paint8_linear_1261_32339" x1="54.689" y1="67.5685" x2="54.9086" y2="71.8207" gradientUnits="userSpaceOnUse">
<stop offset="0.12" stop-color="#ADEDEE"/>
<stop offset="1" stop-color="#4CD8DB"/>
</linearGradient>
<linearGradient id="paint9_linear_1261_32339" x1="40.9055" y1="48.8967" x2="48.6167" y2="63.4696" gradientUnits="userSpaceOnUse">
<stop offset="0.12" stop-color="#ADEDEE"/>
<stop offset="1" stop-color="#4CD8DB"/>
</linearGradient>
</defs>
</svg>
