<svg width="112" height="111" viewBox="0 0 112 111" fill="none" xmlns="http://www.w3.org/2000/svg">
<path d="M56.3817 102.118C82.1292 102.118 103.002 81.2459 103.002 55.4984C103.002 29.7509 82.1292 8.87842 56.3817 8.87842C30.6342 8.87842 9.76172 29.7509 9.76172 55.4984C9.76172 81.2459 30.6342 102.118 56.3817 102.118Z" fill="url(#paint0_linear_1261_32449)"/>
<path d="M56.3826 93.2383C77.2258 93.2383 94.1226 76.3415 94.1226 55.4983C94.1226 34.6551 77.2258 17.7583 56.3826 17.7583C35.5394 17.7583 18.6426 34.6551 18.6426 55.4983C18.6426 76.3415 35.5394 93.2383 56.3826 93.2383Z" fill="#EDFBFB"/>
<path d="M68.9636 38.4427L63.1855 37.6021C63.0324 37.5799 62.887 37.5208 62.7618 37.4299C62.6367 37.3389 62.5355 37.2189 62.467 37.0802L59.8833 31.8326C59.7721 31.6064 59.5997 31.4158 59.3857 31.2825C59.1717 31.1493 58.9246 31.0786 58.6725 31.0786C58.4204 31.0786 58.1734 31.1493 57.9594 31.2825C57.7454 31.4158 57.573 31.6064 57.4618 31.8326L54.879 37.0802C54.8105 37.2189 54.7094 37.3389 54.5842 37.4299C54.459 37.5208 54.3136 37.5799 54.1606 37.6021L48.3815 38.4427C48.132 38.4799 47.8979 38.586 47.7055 38.7491C47.5131 38.9121 47.37 39.1257 47.2924 39.3656C47.2147 39.6056 47.2056 39.8625 47.266 40.1073C47.3265 40.3522 47.4541 40.5754 47.6344 40.7516L51.8153 44.8343C51.9262 44.9422 52.0091 45.0755 52.057 45.2226C52.1048 45.3697 52.1162 45.5262 52.0901 45.6787L51.1017 51.4424C51.0588 51.6909 51.0862 51.9464 51.181 52.18C51.2757 52.4136 51.4339 52.6161 51.6377 52.7645C51.8415 52.9129 52.0827 53.0013 52.3342 53.0198C52.5856 53.0382 52.8372 52.9859 53.0605 52.8688L58.2289 50.1477C58.366 50.0755 58.5186 50.0378 58.6735 50.0378C58.8284 50.0378 58.981 50.0755 59.1181 50.1477L64.2865 52.8688C64.5079 52.9891 64.759 53.0434 65.0102 53.0255C65.2614 53.0076 65.5023 52.9181 65.7043 52.7677C65.9108 52.6208 66.0712 52.4182 66.1668 52.1835C66.2624 51.9488 66.2893 51.6918 66.2444 51.4424L65.2569 45.6796C65.2308 45.5271 65.2422 45.3706 65.29 45.2235C65.3379 45.0764 65.4208 44.9432 65.5316 44.8352L69.7116 40.7526C69.8923 40.5764 70.0202 40.3532 70.0808 40.1081C70.1414 39.8631 70.1323 39.606 70.0545 39.3659C69.9767 39.1257 69.8334 38.9121 69.6406 38.7492C69.4478 38.5862 69.2133 38.4794 68.9636 38.4427Z" fill="url(#paint1_linear_1261_32449)"/>
<path d="M34.4929 60.0178C34.475 60.1193 34.486 60.2239 34.5247 60.3195C34.5634 60.415 34.6281 60.4978 34.7116 60.5583C34.7951 60.6188 34.894 60.6546 34.9969 60.6616C35.0997 60.6686 35.2025 60.6465 35.2934 60.5979L38.671 58.8232C38.8077 58.7509 38.96 58.7131 39.1146 58.7131C39.2693 58.7131 39.4216 58.7509 39.5583 58.8232L42.9358 60.5988C43.0269 60.647 43.1295 60.6687 43.2322 60.6614C43.335 60.6542 43.4336 60.6184 43.517 60.5581C43.6004 60.4977 43.6652 60.4152 43.7042 60.3199C43.7431 60.2245 43.7546 60.1202 43.7373 60.0187L43.3146 57.538C42.8846 57.7449 42.4064 57.8308 41.9312 57.7866C41.456 57.7424 41.0019 57.5698 40.6174 57.2871C40.2233 57.0018 39.9176 56.6112 39.7354 56.1601C39.5531 55.7091 39.5017 55.2158 39.5869 54.7368L40.2233 51.0892L37.859 48.8213L36.9269 50.7181C36.8584 50.8574 36.7571 50.9779 36.6316 51.0692C36.506 51.1605 36.3601 51.2197 36.2065 51.2419L32.4282 51.7857C32.3267 51.8023 32.2318 51.8467 32.154 51.9139C32.0762 51.9811 32.0184 52.0685 31.9872 52.1665C31.956 52.2645 31.9525 52.3692 31.9771 52.469C32.0018 52.5689 32.0535 52.66 32.1267 52.7322L34.8584 55.4037C34.9686 55.5114 35.051 55.6442 35.0987 55.7908C35.1464 55.9373 35.1579 56.0933 35.1322 56.2452L34.4929 60.0178Z" fill="url(#paint2_linear_1261_32449)"/>
<path d="M45.8361 41.5366L44.2036 44.8016C44.1345 44.9397 44.033 45.059 43.9077 45.1493C43.7824 45.2395 43.6371 45.298 43.4842 45.3197L39.2575 45.9208C39.1233 45.9376 38.9967 45.9926 38.893 46.0794C38.7893 46.1662 38.7128 46.2811 38.6726 46.4102C38.6307 46.5339 38.6254 46.6671 38.6574 46.7937C38.6894 46.9203 38.7573 47.035 38.8529 47.1239L41.9118 50.0597C42.0246 50.1679 42.1092 50.3022 42.1579 50.4508C42.2067 50.5994 42.2181 50.7577 42.1913 50.9117L41.4662 55.0621C41.4426 55.1906 41.4565 55.3232 41.5063 55.444C41.556 55.5648 41.6395 55.6687 41.7467 55.7433C41.8579 55.8266 41.9904 55.8767 42.1288 55.8879C42.2673 55.899 42.4061 55.8707 42.5291 55.8063L46.3074 53.8418C46.4434 53.771 46.5944 53.7341 46.7477 53.7341C46.901 53.7341 47.052 53.771 47.188 53.8418L50.9653 55.8073C51.0883 55.8715 51.2269 55.8997 51.3651 55.8885C51.5034 55.8774 51.6357 55.8274 51.7468 55.7443C51.8547 55.6703 51.9391 55.5668 51.9898 55.4462C52.0406 55.3256 52.0556 55.1929 52.033 55.064L52.0053 54.8999C51.5703 54.8434 51.1512 54.6995 50.7732 54.4767C50.3953 54.2539 50.0664 53.9569 49.8064 53.6036C49.5463 53.2503 49.3605 52.848 49.2601 52.4209C49.1597 51.9939 49.1468 51.5509 49.2222 51.1188L50.1248 45.8492L46.3017 42.1158C46.125 41.941 45.9688 41.7467 45.8361 41.5366Z" fill="url(#paint3_linear_1261_32449)"/>
<path d="M74.4168 60.5929L77.7944 58.8183C77.9311 58.7459 78.0834 58.7081 78.2381 58.7081C78.3927 58.7081 78.545 58.7459 78.6817 58.8183L82.0593 60.5939C82.1503 60.642 82.253 60.6637 82.3557 60.6565C82.4584 60.6493 82.557 60.6135 82.6404 60.5531C82.7238 60.4927 82.7887 60.4102 82.8276 60.3149C82.8665 60.2196 82.878 60.1153 82.8607 60.0138L82.2205 56.2431C82.1948 56.0912 82.2063 55.9352 82.254 55.7887C82.3016 55.6421 82.3841 55.5093 82.4943 55.4016L85.2221 52.7301C85.2975 52.6582 85.3513 52.5666 85.3772 52.4658C85.4032 52.3649 85.4004 52.2587 85.3691 52.1594C85.3378 52.06 85.2793 51.9715 85.2002 51.9037C85.1211 51.8359 85.0246 51.7917 84.9216 51.776L81.1462 51.2331C80.9926 51.2109 80.8467 51.1517 80.7211 51.0604C80.5956 50.9691 80.4942 50.8486 80.4258 50.7093L79.4937 48.8125L77.1284 51.0814L77.7667 54.7308C77.8514 55.2096 77.7996 55.7026 77.6172 56.1532C77.4348 56.6039 77.1292 56.9942 76.7353 57.2793C76.3527 57.5658 75.8984 57.7411 75.4224 57.7859C74.9465 57.8307 74.4674 57.7432 74.0381 57.5331L73.6154 60.0138C73.5979 60.1153 73.6093 60.2196 73.6482 60.315C73.6871 60.4104 73.752 60.4929 73.8355 60.5533C73.919 60.6136 74.0177 60.6493 74.1205 60.6563C74.2233 60.6633 74.3259 60.6413 74.4168 60.5929Z" fill="url(#paint4_linear_1261_32449)"/>
<path d="M78.4986 47.122C78.5931 47.0329 78.6601 46.9186 78.6914 46.7925C78.7227 46.6665 78.717 46.5341 78.6751 46.4112C78.6345 46.2815 78.5574 46.1663 78.453 46.0793C78.3486 45.9923 78.2213 45.9373 78.0864 45.9208L73.8635 45.3206C73.7106 45.2989 73.5653 45.2405 73.44 45.1502C73.3147 45.06 73.2132 44.9407 73.1441 44.8025L71.5107 41.5366C71.378 41.7476 71.2218 41.9429 71.0451 42.1186L67.2229 45.8521L68.1246 51.1197C68.1991 51.5514 68.1859 51.9937 68.0855 52.4202C67.9851 52.8466 67.7997 53.2485 67.5404 53.6016C67.2811 53.9547 66.9532 54.2519 66.5763 54.4753C66.1995 54.6987 65.7814 54.8438 65.3471 54.9018L65.3204 55.0573C65.2961 55.1863 65.3095 55.3196 65.3591 55.4411C65.4087 55.5626 65.4923 55.6673 65.6 55.7424C65.7111 55.8257 65.8436 55.8758 65.9821 55.8869C66.1205 55.8981 66.2593 55.8698 66.3823 55.8053L70.1606 53.8408C70.2965 53.7702 70.4474 53.7334 70.6005 53.7334C70.7536 53.7334 70.9044 53.7702 71.0403 53.8408L74.8195 55.8063C74.9426 55.8704 75.0812 55.8984 75.2195 55.8871C75.3577 55.8758 75.49 55.8256 75.601 55.7424C75.7089 55.6686 75.7933 55.5653 75.8441 55.4448C75.8948 55.3244 75.9098 55.1918 75.8872 55.063L75.1602 50.9108C75.1334 50.7567 75.1449 50.5984 75.1936 50.4499C75.2424 50.3013 75.3269 50.167 75.4397 50.0587L78.4986 47.122Z" fill="url(#paint5_linear_1261_32449)"/>
<path d="M41.8259 65.6646C41.7456 65.4184 41.5327 65.2394 41.2762 65.2021L38.6777 64.8245L37.5166 62.4783C37.2866 62.0144 36.5268 62.0144 36.2969 62.4783L35.1357 64.8245L32.5434 65.2021C32.2876 65.2394 32.0747 65.419 31.9944 65.6653C31.9141 65.9109 31.9808 66.181 32.1665 66.3618L34.0467 68.1944L33.6032 70.78C33.5596 71.0351 33.6644 71.2936 33.8739 71.446C34.0841 71.5976 34.3623 71.6174 34.5908 71.497L36.9064 70.276L39.2288 71.497C39.3282 71.5494 39.437 71.5753 39.5452 71.5753C39.6859 71.5753 39.8267 71.531 39.9458 71.4461C40.1554 71.293 40.26 71.0352 40.2165 70.7801L39.7737 68.1946L41.6539 66.3619C41.8396 66.1816 41.9062 65.9109 41.8259 65.6646Z" fill="url(#paint6_linear_1261_32449)"/>
<path d="M52.7087 65.6646C52.6285 65.4184 52.4156 65.2394 52.159 65.2021L49.5605 64.8245L48.3994 62.4783C48.1695 62.0144 47.4096 62.0144 47.1797 62.4783L46.0185 64.8245L43.4262 65.2021C43.1704 65.2394 42.9575 65.419 42.8772 65.6653C42.797 65.9109 42.8637 66.181 43.0493 66.3618L44.9295 68.1944L44.486 70.78C44.4424 71.0351 44.5472 71.2943 44.7567 71.446C44.9662 71.5976 45.2451 71.6174 45.4737 71.497L47.7893 70.276L50.1116 71.497C50.211 71.5494 50.3198 71.5753 50.428 71.5753C50.5688 71.5753 50.7095 71.531 50.8286 71.4461C51.0382 71.293 51.1428 71.0352 51.0993 70.7801L50.6565 68.1946L52.5367 66.3619C52.7224 66.1816 52.789 65.9109 52.7087 65.6646Z" fill="url(#paint7_linear_1261_32449)"/>
<path d="M63.5935 65.6646C63.5132 65.4184 63.3003 65.2394 63.0438 65.2021L60.4453 64.8245L59.2841 62.4783C59.0542 62.0144 58.2944 62.0144 58.0644 62.4783L56.9033 64.8245L54.3109 65.2021C54.0551 65.2394 53.8422 65.419 53.762 65.6653C53.6817 65.9109 53.7484 66.181 53.9341 66.3618L55.8143 68.1944L55.3707 70.78C55.3272 71.0351 55.432 71.2936 55.6415 71.446C55.8516 71.5976 56.1299 71.6174 56.3584 71.497L58.6739 70.276L60.9963 71.497C61.0957 71.5494 61.2045 71.5753 61.3126 71.5753C61.4534 71.5753 61.5942 71.531 61.7133 71.4461C61.9228 71.293 62.0275 71.0352 61.984 70.7801L61.5412 68.1946L63.4214 66.3619C63.6071 66.1816 63.6737 65.9109 63.5935 65.6646Z" fill="url(#paint8_linear_1261_32449)"/>
<path d="M74.4782 65.6646C74.398 65.4184 74.1851 65.2394 73.9286 65.2021L71.33 64.8245L70.1689 62.4783C69.939 62.0144 69.1791 62.0144 68.9492 62.4783L67.7881 64.8245L65.1957 65.2021C64.9399 65.2394 64.727 65.419 64.6467 65.6653C64.5665 65.9109 64.6332 66.181 64.8188 66.3618L66.699 68.1944L66.2555 70.78C66.212 71.0351 66.3168 71.2936 66.5262 71.446C66.7364 71.5976 67.0146 71.6174 67.2432 71.497L69.5587 70.276L71.8811 71.497C71.9804 71.5494 72.0893 71.5753 72.1974 71.5753C72.3382 71.5753 72.479 71.531 72.598 71.4461C72.8076 71.293 72.9123 71.0352 72.8688 70.7801L72.4259 68.1946L74.3061 66.3619C74.4918 66.1816 74.5585 65.9109 74.4782 65.6646Z" fill="url(#paint9_linear_1261_32449)"/>
<path d="M85.3611 65.6646C85.2801 65.4184 85.0679 65.2394 84.8114 65.2021L82.2128 64.8245L81.0517 62.4783C80.8218 62.0144 80.0619 62.0144 79.832 62.4783L78.6709 64.8245L76.0785 65.2021C75.8227 65.2394 75.6098 65.419 75.5296 65.6653C75.4493 65.9109 75.516 66.181 75.7017 66.3618L77.5819 68.1944L77.1383 70.78C77.0948 71.0351 77.1996 71.2936 77.409 71.446C77.5274 71.5317 77.6675 71.5752 77.8083 71.5752C77.9172 71.5752 78.026 71.5493 78.1266 71.4969L80.4422 70.2759L82.7652 71.4969C82.9938 71.6187 83.2713 71.5982 83.4816 71.4452C83.6904 71.2929 83.7952 71.0351 83.7517 70.7799L83.3089 68.1943L85.1891 66.3617C85.3746 66.1816 85.4407 65.9109 85.3611 65.6646Z" fill="url(#paint10_linear_1261_32449)"/>
<defs>
<linearGradient id="paint0_linear_1261_32449" x1="46.6479" y1="0.657177" x2="73.042" y2="92.5425" gradientUnits="userSpaceOnUse">
<stop offset="0.12" stop-color="#ADEDEE"/>
<stop offset="1" stop-color="#4CD8DB"/>
</linearGradient>
<linearGradient id="paint1_linear_1261_32449" x1="56.2835" y1="29.1432" x2="62.2779" y2="50.9085" gradientUnits="userSpaceOnUse">
<stop offset="0.12" stop-color="#ADEDEE"/>
<stop offset="1" stop-color="#4CD8DB"/>
</linearGradient>
<linearGradient id="paint2_linear_1261_32449" x1="36.6228" y1="47.7772" x2="39.9887" y2="59.4381" gradientUnits="userSpaceOnUse">
<stop offset="0.12" stop-color="#ADEDEE"/>
<stop offset="1" stop-color="#4CD8DB"/>
</linearGradient>
<linearGradient id="paint3_linear_1261_32449" x1="43.9404" y1="40.271" x2="48.243" y2="54.2606" gradientUnits="userSpaceOnUse">
<stop offset="0.12" stop-color="#ADEDEE"/>
<stop offset="1" stop-color="#4CD8DB"/>
</linearGradient>
<linearGradient id="paint4_linear_1261_32449" x1="78.2706" y1="47.7681" x2="81.6377" y2="59.4325" gradientUnits="userSpaceOnUse">
<stop offset="0.12" stop-color="#ADEDEE"/>
<stop offset="1" stop-color="#4CD8DB"/>
</linearGradient>
<linearGradient id="paint5_linear_1261_32449" x1="70.6108" y1="40.2711" x2="74.9137" y2="54.2589" gradientUnits="userSpaceOnUse">
<stop offset="0.12" stop-color="#ADEDEE"/>
<stop offset="1" stop-color="#4CD8DB"/>
</linearGradient>
<linearGradient id="paint6_linear_1261_32449" x1="35.8768" y1="61.2976" x2="38.4455" y2="70.6692" gradientUnits="userSpaceOnUse">
<stop offset="0.12" stop-color="#ADEDEE"/>
<stop offset="1" stop-color="#4CD8DB"/>
</linearGradient>
<linearGradient id="paint7_linear_1261_32449" x1="46.7596" y1="61.2976" x2="49.3283" y2="70.6692" gradientUnits="userSpaceOnUse">
<stop offset="0.12" stop-color="#ADEDEE"/>
<stop offset="1" stop-color="#4CD8DB"/>
</linearGradient>
<linearGradient id="paint8_linear_1261_32449" x1="57.6444" y1="61.2976" x2="60.213" y2="70.6692" gradientUnits="userSpaceOnUse">
<stop offset="0.12" stop-color="#ADEDEE"/>
<stop offset="1" stop-color="#4CD8DB"/>
</linearGradient>
<linearGradient id="paint9_linear_1261_32449" x1="68.5291" y1="61.2976" x2="71.0978" y2="70.6692" gradientUnits="userSpaceOnUse">
<stop offset="0.12" stop-color="#ADEDEE"/>
<stop offset="1" stop-color="#4CD8DB"/>
</linearGradient>
<linearGradient id="paint10_linear_1261_32449" x1="79.4119" y1="61.2975" x2="81.9809" y2="70.6697" gradientUnits="userSpaceOnUse">
<stop offset="0.12" stop-color="#ADEDEE"/>
<stop offset="1" stop-color="#4CD8DB"/>
</linearGradient>
</defs>
</svg>
