<svg width="95" height="95" viewBox="0 0 95 95" fill="none" xmlns="http://www.w3.org/2000/svg">
<path d="M47.5009 94.1184C73.2484 94.1184 94.1209 73.2459 94.1209 47.4984C94.1209 21.7509 73.2484 0.878418 47.5009 0.878418C21.7533 0.878418 0.880859 21.7509 0.880859 47.4984C0.880859 73.2459 21.7533 94.1184 47.5009 94.1184Z" fill="url(#paint0_linear_1261_31987)"/>
<path d="M47.5017 85.2383C68.3449 85.2383 85.2417 68.3415 85.2417 47.4983C85.2417 26.6551 68.3449 9.7583 47.5017 9.7583C26.6585 9.7583 9.76172 26.6551 9.76172 47.4983C9.76172 68.3415 26.6585 85.2383 47.5017 85.2383Z" fill="#EDFBFB"/>
<g clip-path="url(#clip0_1261_31987)">
<path d="M48.4229 24.3987L50.9267 29.3285C51.0023 29.4753 51.1121 29.6016 51.247 29.6969C51.3818 29.7922 51.5377 29.8535 51.7013 29.8757L57.3011 30.6663C57.4887 30.6877 57.6663 30.7622 57.8131 30.8811C57.9598 31 58.0696 31.1583 58.1294 31.3374C58.1893 31.5166 58.1968 31.7091 58.1511 31.8923C58.1053 32.0755 58.0082 32.2419 57.8711 32.3718L53.8197 36.2088C53.7008 36.3202 53.6114 36.4595 53.5598 36.614C53.5081 36.7686 53.4956 36.9335 53.5236 37.0941L54.4798 42.5122C54.5079 42.6998 54.4833 42.8914 54.4088 43.0658C54.3344 43.2401 54.2129 43.3904 54.058 43.4997C53.9032 43.6091 53.7209 43.6733 53.5317 43.6852C53.3425 43.697 53.1537 43.6561 52.9864 43.5669L47.9787 41.0119C47.8303 40.9363 47.6661 40.8969 47.4995 40.8969C47.3329 40.8969 47.1687 40.9363 47.0202 41.0119L42.0126 43.5661C41.8453 43.6553 41.6565 43.6963 41.4673 43.6844C41.278 43.6726 41.0958 43.6084 40.9409 43.499C40.786 43.3896 40.6646 43.2394 40.5901 43.065C40.5157 42.8906 40.4911 42.699 40.5192 42.5115L41.4754 37.0933C41.5033 36.9328 41.4909 36.7678 41.4392 36.6133C41.3875 36.4587 41.2982 36.3195 41.1793 36.2081L37.1279 32.3711C36.9908 32.2411 36.8937 32.0748 36.8479 31.8915C36.8022 31.7083 36.8097 31.5158 36.8695 31.3367C36.9294 31.1576 37.0391 30.9992 37.1859 30.8803C37.3326 30.7615 37.5103 30.6869 37.6979 30.6655L43.2977 29.8749C43.4613 29.8527 43.6171 29.7914 43.752 29.6961C43.8868 29.6009 43.9967 29.4745 44.0723 29.3277L46.5761 24.3987C46.6648 24.2306 46.7976 24.0899 46.9603 23.9918C47.123 23.8937 47.3095 23.8418 47.4995 23.8418C47.6895 23.8418 47.8759 23.8937 48.0386 23.9918C48.2014 24.0899 48.3342 24.2306 48.4229 24.3987Z" fill="url(#paint1_linear_1261_31987)"/>
<path d="M29.2994 34.344L28.4294 38.3062C28.4041 38.4227 28.3513 38.5316 28.2754 38.6236C28.1994 38.7156 28.1026 38.788 27.9929 38.835L24.3017 40.3971C24.1758 40.4502 24.067 40.537 23.9872 40.648C23.9075 40.7589 23.8599 40.8897 23.8497 41.026C23.8395 41.1623 23.8672 41.2987 23.9295 41.4202C23.9919 41.5418 24.0866 41.6438 24.2032 41.715L27.6304 43.7297C27.7321 43.79 27.8175 43.8742 27.8792 43.975C27.9409 44.0758 27.9771 44.1902 27.9845 44.3081L28.257 48.3435C28.2644 48.4793 28.3104 48.6102 28.3895 48.7208C28.4686 48.8315 28.5776 48.9173 28.7037 48.9682C28.8298 49.0191 28.9678 49.033 29.1015 49.0084C29.2353 48.9837 29.3592 48.9214 29.4589 48.8289L32.4473 46.1114C32.5341 46.0316 32.6392 45.9743 32.7534 45.9445C32.8675 45.9147 32.9872 45.9133 33.102 45.9405L36.965 46.8722C37.0982 46.9011 37.2369 46.8927 37.3657 46.848C37.4945 46.8033 37.6085 46.724 37.6952 46.6187C37.7819 46.5135 37.838 46.3864 37.8573 46.2514C37.8765 46.1164 37.8582 45.9787 37.8044 45.8535L36.2217 42.1599C36.1747 42.0497 36.1549 41.9298 36.1638 41.8103C36.1727 41.6908 36.2101 41.5752 36.2728 41.4731L38.3882 38.0139C38.4614 37.8991 38.5009 37.766 38.5021 37.6298C38.5034 37.4937 38.4665 37.3599 38.3954 37.2437C38.3244 37.1275 38.2222 37.0336 38.1005 36.9727C37.9787 36.9117 37.8423 36.8862 37.7067 36.8989L33.7385 37.3339C33.6217 37.3468 33.5036 37.3306 33.3947 37.2866C33.2857 37.2427 33.1894 37.1724 33.1143 37.0821L30.5593 34.0151C30.471 33.912 30.3554 33.8358 30.2258 33.7953C30.0963 33.7547 29.9579 33.7514 29.8265 33.7857C29.6952 33.82 29.5761 33.8905 29.4829 33.9892C29.3897 34.088 29.3261 34.2109 29.2994 34.344Z" fill="url(#paint2_linear_1261_31987)"/>
<path d="M65.7008 34.344L66.5708 38.3062C66.5961 38.4227 66.6489 38.5316 66.7249 38.6236C66.8008 38.7156 66.8976 38.788 67.0073 38.835L70.7024 40.3971C70.8283 40.4502 70.9371 40.537 71.0168 40.648C71.0966 40.7589 71.1441 40.8897 71.1543 41.026C71.1645 41.1623 71.1369 41.2987 71.0745 41.4202C71.0121 41.5418 70.9174 41.6438 70.8008 41.715L67.3736 43.7297C67.2719 43.79 67.1865 43.8742 67.1248 43.975C67.0631 44.0758 67.027 44.1902 67.0195 44.3081L66.7471 48.3435C66.7396 48.4793 66.6937 48.6102 66.6146 48.7208C66.5355 48.8315 66.4265 48.9173 66.3004 48.9682C66.1743 49.0191 66.0362 49.033 65.9025 49.0084C65.7688 48.9837 65.6448 48.9214 65.5452 48.8289L62.5568 46.1114C62.4699 46.0316 62.3648 45.9743 62.2506 45.9445C62.1365 45.9147 62.0168 45.9133 61.902 45.9405L58.0391 46.8722C57.9058 46.9011 57.7672 46.8927 57.6383 46.848C57.5095 46.8033 57.3955 46.724 57.3088 46.6187C57.2221 46.5135 57.166 46.3864 57.1468 46.2514C57.1275 46.1164 57.1458 45.9787 57.1996 45.8535L58.7808 42.1599C58.8278 42.0497 58.8476 41.9298 58.8387 41.8103C58.8298 41.6908 58.7924 41.5752 58.7297 41.4731L56.612 38.0162C56.5388 37.9013 56.4994 37.7683 56.4981 37.6321C56.4968 37.496 56.5338 37.3622 56.6048 37.246C56.6758 37.1298 56.778 37.0359 56.8997 36.975C57.0215 36.914 57.1579 36.8885 57.2935 36.9012L61.2617 37.3362C61.3785 37.3491 61.4966 37.3329 61.6056 37.2889C61.7145 37.245 61.8109 37.1747 61.886 37.0844L64.4409 34.0151C64.5293 33.912 64.6448 33.8358 64.7744 33.7953C64.904 33.7547 65.0423 33.7514 65.1737 33.7857C65.3051 33.82 65.4241 33.8905 65.5173 33.9892C65.6106 34.088 65.6741 34.2109 65.7008 34.344Z" fill="url(#paint3_linear_1261_31987)"/>
<path d="M41.3951 71.1521C41.3878 71.0995 41.3732 71.0481 41.3516 70.9995C41.3798 71.1453 41.3951 71.2002 41.3951 71.1521Z" fill="url(#paint4_linear_1261_31987)"/>
<path d="M41.3487 71.0051C40.6695 69.1964 31.5044 53.1021 29.5508 49.6681C29.705 49.6039 29.847 49.5135 29.9705 49.401L32.9162 46.6919L36.7852 47.6229C36.8981 47.6469 37.0132 47.6597 37.1286 47.6611C37.3252 47.6621 37.5199 47.6232 37.701 47.5466C38.3038 51.5377 40.9748 69.1049 41.3487 71.0051Z" fill="url(#paint5_linear_1261_31987)"/>
<path d="M53.4593 44.4468L48.2624 71.1562L42.2871 44.279C42.31 44.2713 42.3329 44.2561 42.3558 44.2484L47.3695 41.692C47.4082 41.6671 47.4532 41.6538 47.4993 41.6538C47.5453 41.6538 47.5903 41.6671 47.629 41.692L52.6427 44.2484C52.8953 44.3784 53.1752 44.4464 53.4593 44.4468Z" fill="url(#paint6_linear_1261_31987)"/>
<path d="M53.6055 71.1521C53.6055 71.2002 53.6207 71.1453 53.649 70.9995C53.6273 71.0481 53.6127 71.0995 53.6055 71.1521Z" fill="url(#paint7_linear_1261_31987)"/>
<path d="M65.4483 49.6674C63.4947 53.1015 54.3296 69.1958 53.6504 71.0044C54.0243 69.1042 56.6953 51.5371 57.2981 47.5459C57.4792 47.6225 57.6739 47.6614 57.8705 47.6604C57.9859 47.659 58.1009 47.6462 58.2139 47.6222L62.0448 46.6836L65.0286 49.4003C65.1521 49.5129 65.2941 49.6032 65.4483 49.6674Z" fill="url(#paint8_linear_1261_31987)"/>
</g>
<defs>
<linearGradient id="paint0_linear_1261_31987" x1="37.7671" y1="-7.34282" x2="64.1611" y2="84.5425" gradientUnits="userSpaceOnUse">
<stop offset="0.12" stop-color="#ADEDEE"/>
<stop offset="1" stop-color="#4CD8DB"/>
</linearGradient>
<linearGradient id="paint1_linear_1261_31987" x1="45.2694" y1="22.092" x2="50.5433" y2="41.8553" gradientUnits="userSpaceOnUse">
<stop offset="0.12" stop-color="#ADEDEE"/>
<stop offset="1" stop-color="#4CD8DB"/>
</linearGradient>
<linearGradient id="paint2_linear_1261_31987" x1="29.6451" y1="32.4169" x2="34.1135" y2="47.3575" gradientUnits="userSpaceOnUse">
<stop offset="0.12" stop-color="#ADEDEE"/>
<stop offset="1" stop-color="#4CD8DB"/>
</linearGradient>
<linearGradient id="paint3_linear_1261_31987" x1="62.297" y1="32.4169" x2="66.7644" y2="47.3581" gradientUnits="userSpaceOnUse">
<stop offset="0.12" stop-color="#ADEDEE"/>
<stop offset="1" stop-color="#4CD8DB"/>
</linearGradient>
<linearGradient id="paint4_linear_1261_31987" x1="41.3688" y1="70.9846" x2="41.4587" y2="71.0648" gradientUnits="userSpaceOnUse">
<stop offset="0.12" stop-color="#ADEDEE"/>
<stop offset="1" stop-color="#4CD8DB"/>
</linearGradient>
<linearGradient id="paint5_linear_1261_31987" x1="34.2181" y1="44.5481" x2="45.5877" y2="63.7546" gradientUnits="userSpaceOnUse">
<stop offset="0.12" stop-color="#ADEDEE"/>
<stop offset="1" stop-color="#4CD8DB"/>
</linearGradient>
<linearGradient id="paint6_linear_1261_31987" x1="46.7069" y1="39.0525" x2="61.8609" y2="59.0302" gradientUnits="userSpaceOnUse">
<stop offset="0.12" stop-color="#ADEDEE"/>
<stop offset="1" stop-color="#4CD8DB"/>
</linearGradient>
<linearGradient id="paint7_linear_1261_31987" x1="53.6227" y1="70.9846" x2="53.7126" y2="71.0648" gradientUnits="userSpaceOnUse">
<stop offset="0.12" stop-color="#ADEDEE"/>
<stop offset="1" stop-color="#4CD8DB"/>
</linearGradient>
<linearGradient id="paint8_linear_1261_31987" x1="58.3177" y1="44.5392" x2="69.6926" y2="63.7486" gradientUnits="userSpaceOnUse">
<stop offset="0.12" stop-color="#ADEDEE"/>
<stop offset="1" stop-color="#4CD8DB"/>
</linearGradient>
<clipPath id="clip0_1261_31987">
<rect width="48.84" height="48.84" fill="white" transform="translate(23.0801 23.0786)"/>
</clipPath>
</defs>
</svg>
