<svg width="95" height="95" viewBox="0 0 95 95" fill="none" xmlns="http://www.w3.org/2000/svg">
<path d="M47.4208 94.1184C73.1683 94.1184 94.0408 73.2459 94.0408 47.4984C94.0408 21.7509 73.1683 0.878418 47.4208 0.878418C21.6733 0.878418 0.800781 21.7509 0.800781 47.4984C0.800781 73.2459 21.6733 94.1184 47.4208 94.1184Z" fill="url(#paint0_linear_1261_32401)"/>
<path d="M47.4216 85.2383C68.2649 85.2383 85.1616 68.3415 85.1616 47.4983C85.1616 26.6551 68.2649 9.7583 47.4216 9.7583C26.5784 9.7583 9.68164 26.6551 9.68164 47.4983C9.68164 68.3415 26.5784 85.2383 47.4216 85.2383Z" fill="#EDFBFB"/>
<path d="M57.8284 38.8887L52.39 38.0976C52.2459 38.0766 52.109 38.021 51.9912 37.9354C51.8734 37.8498 51.7782 37.7369 51.7137 37.6063L49.2819 32.6672C49.1772 32.4542 49.015 32.2749 48.8135 32.1494C48.6121 32.024 48.3796 31.9575 48.1423 31.9575C47.905 31.9575 47.6725 32.024 47.471 32.1494C47.2696 32.2749 47.1074 32.4542 47.0027 32.6672L44.5717 37.6063C44.5073 37.7369 44.4121 37.8498 44.2943 37.9354C44.1765 38.021 44.0396 38.0766 43.8955 38.0976L38.4562 38.8887C38.2214 38.9238 38.001 39.0236 37.8199 39.1771C37.6388 39.3306 37.5041 39.5315 37.4311 39.7574C37.358 39.9833 37.3494 40.225 37.4063 40.4555C37.4632 40.686 37.5833 40.896 37.753 41.0619L41.6882 44.9046C41.7925 45.0062 41.8705 45.1316 41.9156 45.2701C41.9606 45.4085 41.9714 45.5558 41.9468 45.6994L41.0165 51.1243C40.9761 51.3582 41.0019 51.5986 41.0911 51.8185C41.1802 52.0384 41.3291 52.229 41.521 52.3687C41.7128 52.5084 41.9399 52.5916 42.1765 52.6089C42.4132 52.6263 42.65 52.5771 42.8601 52.4669L47.7247 49.9057C47.8537 49.8377 47.9974 49.8022 48.1432 49.8022C48.289 49.8022 48.4326 49.8377 48.5617 49.9057L53.4263 52.4669C53.6346 52.58 53.871 52.6312 54.1074 52.6143C54.3439 52.5974 54.5706 52.5133 54.7607 52.3717C54.9551 52.2334 55.106 52.0427 55.196 51.8218C55.286 51.6009 55.3113 51.359 55.269 51.1243L54.3396 45.7002C54.315 45.5567 54.3257 45.4094 54.3708 45.271C54.4158 45.1325 54.4939 45.0071 54.5982 44.9055L58.5324 41.0628C58.7026 40.897 58.823 40.6869 58.88 40.4563C58.937 40.2256 58.9284 39.9836 58.8552 39.7576C58.782 39.5316 58.6471 39.3306 58.4656 39.1772C58.2842 39.0238 58.0635 38.9233 57.8284 38.8887Z" fill="url(#paint1_linear_1261_32401)"/>
<path d="M25.3832 59.1892C25.3663 59.2848 25.3766 59.3832 25.413 59.4732C25.4494 59.5631 25.5104 59.641 25.589 59.698C25.6676 59.7549 25.7606 59.7886 25.8575 59.7952C25.9543 59.8018 26.051 59.781 26.1366 59.7352L29.3156 58.0649C29.4443 57.9968 29.5876 57.9612 29.7332 57.9612C29.8788 57.9612 30.0221 57.9968 30.1508 58.0649L33.3298 59.7361C33.4154 59.7814 33.5121 59.8018 33.6088 59.795C33.7054 59.7883 33.7983 59.7546 33.8768 59.6977C33.9553 59.6409 34.0163 59.5632 34.0529 59.4735C34.0896 59.3838 34.1004 59.2856 34.0841 59.1901L33.6863 56.8552C33.2815 57.0499 32.8314 57.1308 32.3842 57.0892C31.937 57.0476 31.5095 56.8851 31.1476 56.6191C30.7767 56.3505 30.489 55.9829 30.3174 55.5583C30.1459 55.1338 30.0975 54.6695 30.1777 54.2186L30.7767 50.7855L28.5514 48.6509L27.674 50.4362C27.6096 50.5673 27.5142 50.6807 27.3961 50.7666C27.2779 50.8525 27.1406 50.9083 26.996 50.9292L23.4398 51.441C23.3443 51.4567 23.255 51.4984 23.1817 51.5617C23.1084 51.6249 23.0541 51.7072 23.0247 51.7994C22.9954 51.8917 22.9921 51.9902 23.0153 52.0842C23.0384 52.1782 23.0872 52.2639 23.156 52.3319L25.7271 54.8464C25.8308 54.9478 25.9085 55.0728 25.9533 55.2107C25.9982 55.3486 26.009 55.4954 25.9848 55.6384L25.3832 59.1892Z" fill="url(#paint2_linear_1261_32401)"/>
<path d="M36.0593 41.8003L34.5228 44.8733C34.4578 45.0033 34.3623 45.1156 34.2443 45.2006C34.1264 45.2855 33.9896 45.3405 33.8457 45.361L29.8675 45.9267C29.7411 45.9425 29.6221 45.9944 29.5244 46.0761C29.4268 46.1578 29.3548 46.2659 29.317 46.3874C29.2775 46.5038 29.2725 46.6292 29.3026 46.7483C29.3327 46.8675 29.3967 46.9754 29.4867 47.0591L32.3658 49.8224C32.472 49.9242 32.5515 50.0506 32.5974 50.1905C32.6433 50.3303 32.6541 50.4793 32.6289 50.6243L31.9464 54.5307C31.9242 54.6516 31.9373 54.7764 31.9841 54.8901C32.0309 55.0038 32.1095 55.1017 32.2104 55.1719C32.315 55.2503 32.4397 55.2975 32.57 55.3079C32.7003 55.3184 32.831 55.2918 32.9468 55.2312L36.503 53.3821C36.631 53.3155 36.7731 53.2808 36.9174 53.2808C37.0617 53.2808 37.2038 53.3155 37.3318 53.3821L40.8871 55.2321C41.0028 55.2925 41.1333 55.319 41.2634 55.3086C41.3936 55.2981 41.5181 55.251 41.6226 55.1728C41.7242 55.1031 41.8036 55.0058 41.8514 54.8922C41.8991 54.7787 41.9133 54.6538 41.892 54.5325L41.866 54.378C41.4565 54.3249 41.062 54.1894 40.7063 53.9797C40.3506 53.77 40.041 53.4905 39.7963 53.1579C39.5515 52.8254 39.3766 52.4468 39.2821 52.0448C39.1876 51.6428 39.1755 51.2259 39.2464 50.8192L40.096 45.8594L36.4976 42.3454C36.3313 42.1809 36.1843 41.998 36.0593 41.8003Z" fill="url(#paint3_linear_1261_32401)"/>
<path d="M62.9591 59.73L66.1381 58.0597C66.2668 57.9916 66.4101 57.956 66.5557 57.956C66.7013 57.956 66.8446 57.9916 66.9733 58.0597L70.1523 59.7309C70.238 59.7762 70.3346 59.7966 70.4313 59.7898C70.5279 59.7831 70.6208 59.7494 70.6993 59.6925C70.7778 59.6357 70.8388 59.558 70.8755 59.4683C70.9121 59.3786 70.9229 59.2804 70.9066 59.1849L70.3041 55.6359C70.2798 55.4929 70.2907 55.3461 70.3355 55.2082C70.3804 55.0703 70.458 54.9452 70.5618 54.8439L73.1292 52.3294C73.2002 52.2617 73.2508 52.1755 73.2752 52.0806C73.2997 51.9857 73.297 51.8858 73.2676 51.7922C73.2381 51.6987 73.183 51.6154 73.1086 51.5516C73.0341 51.4878 72.9433 51.4461 72.8464 51.4314L69.2929 50.9204C69.1483 50.8995 69.011 50.8438 68.8928 50.7578C68.7747 50.6719 68.6793 50.5585 68.6149 50.4274L67.7375 48.6421L65.5113 50.7776L66.1121 54.2125C66.1918 54.6632 66.143 55.1271 65.9713 55.5513C65.7996 55.9755 65.512 56.3428 65.1413 56.6112C64.7812 56.8809 64.3535 57.0459 63.9056 57.088C63.4576 57.1302 63.0067 57.0478 62.6026 56.85L62.2048 59.1849C62.1883 59.2805 62.199 59.3787 62.2357 59.4685C62.2723 59.5582 62.3334 59.6359 62.4119 59.6927C62.4905 59.7495 62.5835 59.7831 62.6802 59.7897C62.7769 59.7963 62.8735 59.7756 62.9591 59.73Z" fill="url(#paint4_linear_1261_32401)"/>
<path d="M66.8014 47.0573C66.8904 46.9735 66.9534 46.8659 66.9828 46.7472C67.0123 46.6286 67.007 46.504 66.9675 46.3883C66.9293 46.2663 66.8567 46.1578 66.7584 46.0759C66.6602 45.9941 66.5404 45.9423 66.4134 45.9267L62.4388 45.3619C62.2949 45.3414 62.1581 45.2864 62.0401 45.2015C61.9222 45.1165 61.8266 45.0042 61.7617 44.8742L60.2242 41.8003C60.0994 41.9989 59.9524 42.1827 59.786 42.3481L56.1885 45.8621L57.0371 50.8201C57.1074 51.2264 57.0948 51.6427 57.0004 52.0441C56.9059 52.4455 56.7314 52.8237 56.4873 53.156C56.2433 53.4884 55.9346 53.7681 55.5799 53.9784C55.2252 54.1887 54.8317 54.3252 54.423 54.3798L54.3979 54.5262C54.3749 54.6476 54.3876 54.773 54.4342 54.8874C54.4809 55.0018 54.5597 55.1003 54.661 55.171C54.7656 55.2494 54.8903 55.2966 55.0206 55.307C55.1509 55.3175 55.2815 55.2909 55.3974 55.2303L58.9535 53.3812C59.0814 53.3148 59.2234 53.2801 59.3675 53.2801C59.5116 53.2801 59.6536 53.3148 59.7815 53.3812L63.3386 55.2312C63.4544 55.2915 63.5849 55.3179 63.715 55.3072C63.8452 55.2966 63.9696 55.2494 64.0741 55.171C64.1757 55.1016 64.2551 55.0043 64.3029 54.891C64.3507 54.7776 64.3648 54.6528 64.3435 54.5316L63.6592 50.6234C63.634 50.4784 63.6448 50.3294 63.6907 50.1896C63.7366 50.0498 63.8161 49.9233 63.9223 49.8215L66.8014 47.0573Z" fill="url(#paint5_linear_1261_32401)"/>
<defs>
<linearGradient id="paint0_linear_1261_32401" x1="37.687" y1="-7.34282" x2="64.081" y2="84.5425" gradientUnits="userSpaceOnUse">
<stop offset="0.12" stop-color="#ADEDEE"/>
<stop offset="1" stop-color="#4CD8DB"/>
</linearGradient>
<linearGradient id="paint1_linear_1261_32401" x1="45.8937" y1="30.1359" x2="51.5357" y2="50.6217" gradientUnits="userSpaceOnUse">
<stop offset="0.12" stop-color="#ADEDEE"/>
<stop offset="1" stop-color="#4CD8DB"/>
</linearGradient>
<linearGradient id="paint2_linear_1261_32401" x1="27.3878" y1="47.6681" x2="30.5559" y2="58.6436" gradientUnits="userSpaceOnUse">
<stop offset="0.12" stop-color="#ADEDEE"/>
<stop offset="1" stop-color="#4CD8DB"/>
</linearGradient>
<linearGradient id="paint3_linear_1261_32401" x1="34.2751" y1="40.609" x2="38.3248" y2="53.7763" gradientUnits="userSpaceOnUse">
<stop offset="0.12" stop-color="#ADEDEE"/>
<stop offset="1" stop-color="#4CD8DB"/>
</linearGradient>
<linearGradient id="paint4_linear_1261_32401" x1="66.5863" y1="47.659" x2="69.7555" y2="58.6378" gradientUnits="userSpaceOnUse">
<stop offset="0.12" stop-color="#ADEDEE"/>
<stop offset="1" stop-color="#4CD8DB"/>
</linearGradient>
<linearGradient id="paint5_linear_1261_32401" x1="59.3772" y1="40.6091" x2="63.4272" y2="53.7748" gradientUnits="userSpaceOnUse">
<stop offset="0.12" stop-color="#ADEDEE"/>
<stop offset="1" stop-color="#4CD8DB"/>
</linearGradient>
</defs>
</svg>
